<?xml version="1.0"?>
<svg xmlns="http://www.w3.org/2000/svg" id="outline" viewBox="0 0 512 512" width="512" height="512"><path d="M24,408H48a8.00071,8.00071,0,0,0,7.58984-5.47021l14.793-44.3794L193.45044,312H224a8.00008,8.00008,0,0,0,8-8v-8h8a8.00008,8.00008,0,0,0,8,8h40a8.00008,8.00008,0,0,0,8-8h8v8a8.00008,8.00008,0,0,0,8,8h32a8.00008,8.00008,0,0,0,8-8V248.616l2.25928-.90369L391.50513,352H384v-8a8.00008,8.00008,0,0,0-8-8H344a8.00008,8.00008,0,0,0-8,8v56a8.00008,8.00008,0,0,0,8,8h32a8.00008,8.00008,0,0,0,8-8v-8h8a8.00008,8.00008,0,0,0,8,8h32a8.00008,8.00008,0,0,0,8-8h8v8a8.00008,8.00008,0,0,0,8,8h32a8.00008,8.00008,0,0,0,8-8V344a8.00008,8.00008,0,0,0-8-8H456a8.00008,8.00008,0,0,0-8,8v8h-8V182.53827a30.47552,30.47552,0,0,0,12.28418-7.509l17.37305-17.37256L480,147.31348a27.31257,27.31257,0,0,0,0-38.62647l-2.34277-2.34326A7.99952,7.99952,0,0,0,472,104H440a8.00076,8.00076,0,0,0-5.65723,2.34326l-8,8-17.373,17.37256c-.32471.32465-.63819.65729-.94629.99365l-8.99414-8.99414A39.74137,39.74137,0,0,0,370.74512,112H304a64.07239,64.07239,0,0,0-64,64v3.63226L19.67383,321.27051A7.99953,7.99953,0,0,0,16,328v72A8.00008,8.00008,0,0,0,24,408ZM240,256h-8v-8a8.00008,8.00008,0,0,0-8-8H192a8.00008,8.00008,0,0,0-8,8v22.11182l-13.41675-26.83338,50.5542-32.49908L240,242.2168Zm-59.12939,43.62964-114.0669,42.775L50.40308,320.53711l106.64331-68.55634ZM216,296H200V256h16Zm16-16v-8h8v8Zm64,0v-8h8v8Zm40,16H320V256h16Zm32,96H352V352h16Zm16-16v-8h8v8Zm24,8V352a7.99756,7.99756,0,0,0-.46582-2.69092l-25.27734-70.77637L424,266.6062V384Zm56-32h16v40H464Zm-16,16v8h-8v-8Zm24-240a11.23845,11.23845,0,0,1-3.31445,8L464,140.68591,443.314,120h25.37159A11.23845,11.23845,0,0,1,472,128Zm-51.71582,15.0293L432,131.31348,452.68652,152l-11.71679,11.71582a14.62724,14.62724,0,0,1-20.68555-20.68652Zm-32.56836-8,12.791,12.7915A30.62546,30.62546,0,0,0,424,183.26965v66.69562l-47.136,13.46735-7.738-21.66687,18.959-7.58362-5.94141-14.85547L330.46,240H312a8.00008,8.00008,0,0,0-8,8v8h-7.64771l21.59986-72H360V168H336V128h34.74512A23.84541,23.84541,0,0,1,387.71582,135.0293ZM256,176a48.054,48.054,0,0,1,48-48h16v40h-8a8.00076,8.00076,0,0,0-7.66309,5.70117l-24,80A8.00139,8.00139,0,0,0,280,256v32H256Zm-16,35.11652-5.39648-8.994L240,198.65344ZM32,332.36768l4.90869-3.15564,18.176,24.23462L42.23438,392H32Z"/></svg>
