<?xml version="1.0"?>
<svg xmlns="http://www.w3.org/2000/svg" id="outline" viewBox="0 0 512 512" width="512" height="512"><path d="M16.41064,426.53027l8,24A7.99967,7.99967,0,0,0,32,456H56a7.99967,7.99967,0,0,0,7.58936-5.46973L69.76611,432H82.23389l6.17675,18.53027A7.99967,7.99967,0,0,0,96,456h24a7.99967,7.99967,0,0,0,7.58936-5.46973l8-24-.00391-.00122A7.97749,7.97749,0,0,0,136,424V392a8.00008,8.00008,0,0,0-8-8H104V360h32a8.00008,8.00008,0,0,0,8-8V312a8.00008,8.00008,0,0,0-8-8H112v-8a8.00076,8.00076,0,0,0-2.34326-5.65723L96.3374,277.02344,103.23975,208h27.81591l45.78321,91.56641a63.64367,63.64367,0,0,0,27.21679,27.89648L444.24658,455.06445a7.99592,7.99592,0,0,0,10.74658-3.17968l40-72a7.99948,7.99948,0,0,0-3.41552-11.04l-16-8a7.99823,7.99823,0,0,0-7.69336.29492L432.56885,382.3291,262.74561,251.10254l-36.5564-102.35889A39.75766,39.75766,0,0,0,232,128V88a32.00037,32.00037,0,0,0-51.19971-25.60059L155.2002,81.59961A8.00229,8.00229,0,0,0,152,88v40a39.75984,39.75984,0,0,0,3.35,16H104a64.07239,64.07239,0,0,0-64,64v88a8.00076,8.00076,0,0,0,2.34326,5.65723L44.686,304H24a8.00008,8.00008,0,0,0-8,8v40a8.00008,8.00008,0,0,0,8,8H56v24H24a8.00008,8.00008,0,0,0-8,8v32a7.97749,7.97749,0,0,0,.41455,2.529ZM50.23389,440H37.76611l-2.66668-8H52.90057Zm51.53222,0-2.66668-8h17.80114l-2.66668,8ZM128,192V160h40v-.022a39.88923,39.88923,0,0,0,45.76666,1.55468l26.17627,73.29371-63.479,28.21289L148.94434,208H184V192Zm88-64a24,24,0,0,1-48,0v-8h8a8.00035,8.00035,0,0,0,5.65674-2.34277L195.314,104H216ZM418.66357,423.35645l-142.50946-75.708,27.80121-44.48194,119.367,92.2378Zm53.68653-46.23731,4.59912,2.29981-32.1294,57.833-11.25494-5.97924,5.71887-34.31324ZM291.23169,293.33447l-29.24286,46.78858L211.56249,313.334a47.74041,47.74041,0,0,1-20.41308-20.92382l-7.52264-15.04541L245.3396,249.937l3.12622,8.75342a7.99667,7.99667,0,0,0,2.64258,3.63965ZM190.39941,75.2002A16.00024,16.00024,0,0,1,216,88H192a8.00035,8.00035,0,0,0-5.65674,2.34277L172.686,104H168V92ZM56,292.68652V208a48.054,48.054,0,0,1,48-48h8v32H96a8.00035,8.00035,0,0,0-7.96045,7.2041l-8,80a8.00086,8.00086,0,0,0,2.30371,6.45313L96,299.31348V304H67.314ZM32,320h96v24H32Zm40,40H88v24H72ZM32,400h88v16H32Z"/></svg>
