<?xml version="1.0"?>
<svg xmlns="http://www.w3.org/2000/svg" id="outline" viewBox="0 0 512 512" width="512" height="512"><path d="M488,192H422.99707a24.9912,24.9912,0,0,0-23.96777-32H372.84424a45.80526,45.80526,0,0,1-38.188-20.4375A7.99986,7.99986,0,0,0,320,144v24a39.78882,39.78882,0,0,0,8.15381,24.168q-1.71791-.16644-3.46777-.168H73.29834l-22.76855-7.58936a8.00114,8.00114,0,0,0-10.02051,4.78028l-24,64a8,8,0,0,0,1.834,8.46582l8,8a7.99936,7.99936,0,0,0,9.77246,1.20312l37.77588-22.665,104.77771,9.11084,19.0094,57.02832L146.4541,327.14014l-12.79736-12.79688a7.999,7.999,0,0,0-10.30664-.853l-56,40A7.99921,7.99921,0,0,0,64,360v8a7.99977,7.99977,0,0,0,8,8H224a40.04521,40.04521,0,0,0,40-40V273.36841a46.25509,46.25509,0,0,0,22.16809,6.58691l9.88074,88.928A8.00017,8.00017,0,0,0,304,376h48a7.99977,7.99977,0,0,0,8-8v-8a7.99877,7.99877,0,0,0-2.34326-5.65674L344,340.68652V251.69507A31.794,31.794,0,0,0,360,256h24a32.01141,32.01141,0,0,0,27.69507-16h32.99145l5.65674,5.65674A7.99877,7.99877,0,0,0,456,248h8a7.99924,7.99924,0,0,0,7.15527-4.42236l6.80762-13.61475,13.61475-6.80762A7.99924,7.99924,0,0,0,496,216V200A7.99977,7.99977,0,0,0,488,192ZM336,163.85693A61.78312,61.78312,0,0,0,372.84424,176H399.0293a8.97072,8.97072,0,0,1,6.34326,15.314l-5.13037,5.13038A31.79758,31.79758,0,0,0,384,192H360a24.02687,24.02687,0,0,1-24-24Zm-160,77.1565V208h56v37.88306ZM80,208h80v31.62219l-80-6.95654ZM33.34521,253.86328l19.43848-51.83594L64,205.766V235.4707ZM196.038,258.816,248,263.33435V288H205.76593Zm-68.90271,71.63269,7.13086,7.13086L123.05591,360H85.76367ZM224,360H140.94409l8.56555-17.1311,60.43079-15.10767a8.00035,8.00035,0,0,0,5.64893-10.291L211.0993,304H248v32A24.0275,24.0275,0,0,1,224,360Zm66.47559-133.78418a30.70808,30.70808,0,0,0-7.6294,23.8418l1.52466,13.72217a30.38935,30.38935,0,0,1-18.02759-8.75l-4.68652-4.68653a7.99927,7.99927,0,0,0-4.96387-2.313L248,247.27441V208h76.686a19.28634,19.28634,0,0,1,6.91113,1.28723A31.7413,31.7413,0,0,0,328.27173,219.9a30.6355,30.6355,0,0,0-37.79614,6.3158ZM311.16016,360,298.74854,248.291A14.67037,14.67037,0,0,1,313.3291,232,14.68777,14.68777,0,0,1,328,246.6709V344a7.99877,7.99877,0,0,0,2.34326,5.65674L340.68652,360ZM376,240H360a16,16,0,0,1,0-32l.001.001a8.003,8.003,0,0,0,2.34277,5.65576L376,227.31348Zm16-2.165V224a8.00121,8.00121,0,0,0-2.34277-5.65674L379.31433,208H384a15.98641,15.98641,0,0,1,8,29.835Zm88-26.7793-11.57764,5.78907a7.99662,7.99662,0,0,0-3.57763,3.57763l-5.70313,11.40576-5.48486-5.48486A7.99877,7.99877,0,0,0,448,224H416a31.794,31.794,0,0,0-4.30493-16H480Z"/></svg>
