<?xml version="1.0"?>
<svg xmlns="http://www.w3.org/2000/svg" id="outline" viewBox="0 0 512 512" width="512" height="512"><path d="M304,136V430.11133l-7.15527,14.31055a7.99972,7.99972,0,0,0,2.03369,9.72363l48,40a8.00007,8.00007,0,0,0,10.77832-.48828l8-8a8.00021,8.00021,0,0,0,2.23437-6.97266l-7.78906-46.73535L391.90723,225.2168A8.06492,8.06492,0,0,0,392,224V160h32a40.04552,40.04552,0,0,0,40-40V24a8.00008,8.00008,0,0,0-8-8H424a7.99967,7.99967,0,0,0-7.15527,4.42188l-8,16a7.99945,7.99945,0,0,0,0,7.15624L415.68115,57.251,409.22314,96H379.69482A31.792,31.792,0,0,0,384,80V42.42188A26.42232,26.42232,0,0,0,342.92139,20.4375L323.5625,33.34375A7.99943,7.99943,0,0,0,320,40V80a31.83368,31.83368,0,0,0,6.91992,19.83887A40.04811,40.04811,0,0,0,304,136Zm16,96h54.67505l-11.077,72H320Zm-6.01074,213.91016L316.94434,440H345.223l6.18177,37.08984ZM345.13635,424H320V320h41.13647ZM416,112a8,8,0,0,0,7.89111-6.68457l8-48a8.0015,8.0015,0,0,0-.73584-4.89355L424.94434,40l4-8H448v88a24.02718,24.02718,0,0,1-24,24H400V112ZM352,96a16.01833,16.01833,0,0,1-16-16V64h32V80A16.01833,16.01833,0,0,1,352,96Zm-.20361-62.25A10.42283,10.42283,0,0,1,368,42.42188V48H336V44.28125ZM344,112h40v32H352v16h24v56H320V136A24.02718,24.02718,0,0,1,344,112Z"/><path d="M48,464v24a8.00008,8.00008,0,0,0,8,8H176a8.00008,8.00008,0,0,0,8-8v-8a8.0009,8.0009,0,0,0-3.2002-6.40039L156.77832,455.584l32.44824-27.81347a53.75854,53.75854,0,0,0,3.02783-78.83008l-18.74871-18.74878,15.22088-7.6106L224,386.07324V416a8.00008,8.00008,0,0,0,8,8h8a8.00035,8.00035,0,0,0,5.65674-2.34277l3.92285-3.92285,10.84277,5.42089A7.99583,7.99583,0,0,0,264,424h24a8.00008,8.00008,0,0,0,8-8V400a8.00076,8.00076,0,0,0-2.34326-5.65723l-22.66455-22.66406-23.56055-70.68164a77.66141,77.66141,0,0,0-8.51776-17.69019,30.74594,30.74594,0,0,0,5.3703-4.27661l17.37256-17.373L272,251.31445a27.31491,27.31491,0,0,0-.00049-38.6289l-2.34326-2.34278A7.99922,7.99922,0,0,0,264,208H232a8.00035,8.00035,0,0,0-5.65674,2.34277l-8,8L200.9707,235.71582a30.41955,30.41955,0,0,0-8.15582,14.623,77.5605,77.5605,0,0,0-48.72406,3.623L88.251,277.22852A52.4087,52.4087,0,0,0,71.3501,362.66406l29.99951,29.999L49.68506,459.08887A7.99767,7.99767,0,0,0,48,464Zm16,16v-9.22266l37.93878-6.323L122.6665,480Zm98.6665,0H144a8.00229,8.00229,0,0,0-3.2002-6.40039l-9.77-7.32739,10.90893-1.81787ZM178.814,415.62207l-38.32775,32.85278-19.13428,3.18872,27.87463-23.89306A53.69463,53.69463,0,0,0,168,386.9541a54.25691,54.25691,0,0,0-1.12982-11.00537l16.40875-13.127a37.75341,37.75341,0,0,1-4.465,52.80029Zm-6.79132-64.2854-11.123,8.89819a54.02294,54.02294,0,0,0-8.64527-11.29443l-5.41552-5.415,11.5816-5.791Zm86.32062,30.32056L280,403.31348V408H265.88867l-14.311-7.15527a7.99983,7.99983,0,0,0-9.23438,1.498L240,404.68652V384a8.00029,8.00029,0,0,0-1.00684-3.88477l-23.76855-42.78344,23.53119-11.76563,17.65484,52.96411A8.0039,8.0039,0,0,0,258.34326,381.65723ZM264,232a11.239,11.239,0,0,1-3.31348,8l-4.6864,4.686L235.314,224h25.37256A11.239,11.239,0,0,1,264,232Zm-51.71582,15.03027L224,235.31348,244.68652,256l-11.71533,11.71582a14.58011,14.58011,0,0,1-4.27222,2.95752,77.4318,77.4318,0,0,0-20.6286-14.74463A14.51318,14.51318,0,0,1,212.28418,247.03027Zm-62.03955,21.70118a61.50752,61.50752,0,0,1,82.0083,37.32617l1.392,4.17578-26.19776,13.09888-8.454-15.21705a7.99857,7.99857,0,0,0-10.5708-3.2705l-53.50927,26.75488L95.04541,291.73145ZM72,325.60547a36.323,36.323,0,0,1,9.61523-24.67676L131.31348,350.627l.26416.52832.17627-.08789.2691.269-27.4292,21.94336L82.66357,351.34961A36.16909,36.16909,0,0,1,72,325.60547Zm46.31494,71.30566a7.99982,7.99982,0,0,0-.6582-10.56836l-1.67945-1.67944L143.27893,362.822a37.75312,37.75312,0,0,1-4.465,52.80005l-38.32781,32.85278L74.8924,452.74048Z"/></svg>
