<?xml version="1.0"?>
<svg xmlns="http://www.w3.org/2000/svg" id="outline" viewBox="0 0 512 512" width="512" height="512"><path d="M488,288H472a8.00072,8.00072,0,0,0-6.85986,3.88379L444.083,326.97949,344,305.53271V252.94434L417.88867,216H440a8.00008,8.00008,0,0,0,8-8V128a8.00008,8.00008,0,0,0-8-8H424a8.00072,8.00072,0,0,0-6.85986,3.88379L394.6626,161.34668l-95.312,31.77051A39.95067,39.95067,0,0,0,272,231.06445V296H232V192a24.0275,24.0275,0,0,0-24-24H192a8.00008,8.00008,0,0,0-8,8v11.05566l-4.42236-2.21093a7.99841,7.99841,0,0,0-9.23438,1.498l-8,8a7.99964,7.99964,0,0,0-.99951,10.09473L176,226.42188v86.5996A32.02483,32.02483,0,0,0,168,312H130.42236a26.33978,26.33978,0,0,0-18.91552,8H40a24.02718,24.02718,0,0,0-24,24v16a8.00008,8.00008,0,0,0,8,8H35.05566l-2.21093,4.42188a8.00091,8.00091,0,0,0,1.49853,9.23535l8,8a7.9999,7.9999,0,0,0,10.09424.999L74.42236,376H168a32.065,32.065,0,0,0,15.1687-3.84473A31.94852,31.94852,0,0,0,208,384H488a8.00008,8.00008,0,0,0,8-8V296A8.00008,8.00008,0,0,0,488,288Zm-35.816,80H392V332.1814l50.15564,10.7478ZM376,328.75293V368H335.978A39.79015,39.79015,0,0,0,344,344V321.89575ZM428.5293,136H432v64H421.416l-12.51459-31.28638ZM304.41064,208.2959,395.374,177.9751l10.4646,26.16162-73.41626,36.708A7.99979,7.99979,0,0,0,328,248v24H288V231.06445A23.97042,23.97042,0,0,1,304.41064,208.2959Zm-115.98828-1.14063A7.99928,7.99928,0,0,0,200,200V184h8a8.00917,8.00917,0,0,1,8,8v80H192V224a7.99836,7.99836,0,0,0-1.34375-4.4375L179.3667,202.62793ZM72,360a7.99983,7.99983,0,0,0-4.4375,1.34375l-16.93506,11.29,4.52783-9.05567A8,8,0,0,0,48,352H32v-8a8.00917,8.00917,0,0,1,8-8h64.1156c-.07294.7981-.1156,1.605-.1156,2.42188a26.33254,26.33254,0,0,0,4.438,14.65624L113.05237,360Zm49.75-15.79785A10.42171,10.42171,0,0,1,130.42236,328H136v32h-3.71826ZM168,360H152V328h16a15.96452,15.96452,0,0,1,8,2.15552V352a32.0325,32.0325,0,0,0,.49139,5.5481A15.83514,15.83514,0,0,1,168,360Zm24-8V288h24v40h16V312h40v56H208A16.01833,16.01833,0,0,1,192,352Zm96,16V288h40v56a24.0275,24.0275,0,0,1-24,24Zm192,0H469.416l-12.51459-31.28638L476.5293,304H480Z"/></svg>
