<?xml version="1.0"?>
<svg xmlns="http://www.w3.org/2000/svg" id="outline" viewBox="0 0 512 512" width="512" height="512"><path d="M141.3313,312.67773l27.488,19.99122L192,440.84766V456a8.00039,8.00039,0,0,0,8,8h64a8.00039,8.00039,0,0,0,8-8V440a7.99912,7.99912,0,0,0-4.42188-7.15527l-28.17089-14.085L225.80566,309.94238a47.98793,47.98793,0,0,0-15.74121-29.92187L152,228.40723v-15.6211a33.65951,33.65951,0,0,0,15.97729-28.07324L222.7002,176.294l13.72168,6.86132A7.99934,7.99934,0,0,0,240,184h4a28,28,0,0,0,0-56H155.69482A31.792,31.792,0,0,0,160,112V88a31.978,31.978,0,0,0-48.24121-27.55566l-5.13086-5.13086A24.97109,24.97109,0,0,0,64,72.9707v34.18457a45.80666,45.80666,0,0,1-20.4375,38.18848A7.99967,7.99967,0,0,0,48,160H63.208a47.65589,47.65589,0,0,0,16.94629-3.1189C80.05444,157.90771,80,158.94751,80,160V325.19336L17.75293,403.00293a7.99991,7.99991,0,0,0-.9082,8.57519l24,48A8.00022,8.00022,0,0,0,48,464H64a8.00039,8.00039,0,0,0,8-8V419.042l54.31641-61.10644a47.94331,47.94331,0,0,0,11.47168-23.998ZM126.55615,304H96V279.687c.15991.12012.31152.249.47363.3667l30.3899,22.10181ZM256,444.94434V448H208v-3.05566l24-12ZM209.92871,311.92773,223.35938,419.376l-17.70093,8.85058L183.82227,326.32422a7.99679,7.99679,0,0,0-3.11719-4.794L156.22021,303.7229,182.77368,277.169l16.66187,14.81054A31.9899,31.9899,0,0,1,209.92871,311.92773ZM170.79346,266.52l-27.67408,27.67505-37.23559-27.08081A24.07287,24.07287,0,0,1,96,247.70508V240h44.9585ZM142.11133,200l-1.68945.84473A7.99912,7.99912,0,0,0,136,208v16H96V160a16.01833,16.01833,0,0,1,16-16h3.543a30.15843,30.15843,0,0,0,26.60937,44.33008,30.31892,30.31892,0,0,0,4.59961-.35156l4.95117-.76172A17.76812,17.76812,0,0,1,142.11133,200ZM128,128a16.01833,16.01833,0,0,1-16-16v-.001h.001a7.99779,7.99779,0,0,0,5.65527-2.34277L131.31348,96H144v16A16.01833,16.01833,0,0,1,128,128Zm128,28a12.01312,12.01312,0,0,1-12,12h-2.11133l-14.31055-7.15527a8.01453,8.01453,0,0,0-4.79492-.752l-78.46484,12.07129A14.1644,14.1644,0,1,1,142.165,144H244A12.01312,12.01312,0,0,1,256,156ZM141.835,80H128a7.99836,7.99836,0,0,0-5.65625,2.34277L112,92.68506V88a15.98641,15.98641,0,0,1,29.835-8ZM80,107.15527V72.9707a8.97,8.97,0,0,1,15.31348-6.34277l5.13086,5.13086A31.79317,31.79317,0,0,0,96,88v23.20679l-1.41406,7.0686a32.10643,32.10643,0,0,1-26.44629,25.34082A61.794,61.794,0,0,0,80,107.15527ZM52.94434,448,33.88818,409.88843,56,420.94434V448Zm61.41308-100.69336L62.09424,406.10278l-18.80811-9.404,50.96094-63.70166A7.998,7.998,0,0,0,96,328v-8h27.88989l-1.884,11.30664A31.97113,31.97113,0,0,1,114.35742,347.30664Z"/><path d="M488,56H216a8.00039,8.00039,0,0,0-8,8v48h16V72H480V232H224V192H208v48a8.00039,8.00039,0,0,0,8,8h24v24h-8v16H344v64H248v16H441.75415l22.48511,89.94043A7.99866,7.99866,0,0,0,472,464h16a8.00039,8.00039,0,0,0,8-8V280a8.00039,8.00039,0,0,0-8-8H464V248h24a8.00039,8.00039,0,0,0,8-8V64A8.00039,8.00039,0,0,0,488,56ZM418.584,248l9.6001,24H275.81592l9.6001-24ZM256,272V248h12.18408l-9.6001,24ZM478.24609,448l-20.00024-80H480v80ZM480,352H360V288H480Zm-32-80h-2.584l-9.6001-24H448Z"/><circle cx="424" cy="320" r="8"/><circle cx="280" cy="320" r="8"/><path d="M335.999,192a7.99481,7.99481,0,0,0,4.99805-1.75293l40-32a7.99943,7.99943,0,0,0,0-12.49414l-40-32A8,8,0,0,0,328,120v64a8.00085,8.00085,0,0,0,7.999,8ZM344,136.64453,363.19336,152,344,167.35547Z"/></svg>
