<?xml version="1.0"?>
<svg xmlns="http://www.w3.org/2000/svg" id="outline" viewBox="0 0 512 512" width="512" height="512"><path d="M491.57812,448.84473,448,427.05566V300a68.07728,68.07728,0,0,0-68-68H244.28125l-.3125-.46826A52.70056,52.70056,0,0,0,208,208.62952V40a24.02718,24.02718,0,0,0-24-24H168a8.00071,8.00071,0,0,0-7.58984,5.47021l-5.083,15.249-7.749-3.87451a8.00093,8.00093,0,0,0-10.73339,3.57763l-8,16a7.99823,7.99823,0,0,0,.499,8.01514l14.34863,21.52344L123.55664,243.04779A39.84827,39.84827,0,0,0,96,232H64a39.97633,39.97633,0,0,0-24.66968,71.45142l-4.43579,8.87182A27.4108,27.4108,0,0,0,56.208,351.80615,92.0338,92.0338,0,0,0,132,496h48a91.97334,91.97334,0,0,0,51.78613-168h137.502L392,456.69849V480a8.00008,8.00008,0,0,0,8,8h88a8.00008,8.00008,0,0,0,8-8V456A7.99967,7.99967,0,0,0,491.57812,448.84473ZM344,248v64H272V248ZM147.57812,50.73291l8.84376,4.42236a8.00041,8.00041,0,0,0,11.168-4.62548L173.76562,32H184a8.00917,8.00917,0,0,1,8,8V176H148.0625l11.876-95.00781a7.99605,7.99605,0,0,0-1.28223-5.42969l-13.4248-20.13721ZM72,248H96a24,24,0,0,1,0,48H88v-8a8.00035,8.00035,0,0,0-2.34277-5.65674L72,268.686Zm-16,1.37622V272a8.00035,8.00035,0,0,0,2.34277,5.65674L72,291.314V296H64a23.99787,23.99787,0,0,1-8-46.62378ZM48,324.5835a11.48116,11.48116,0,0,1,1.20508-5.10547l4.42456-8.84925A39.89887,39.89887,0,0,0,64,312h40a24.02718,24.02718,0,0,1,24,24v15.10645A89.31284,89.31284,0,0,0,78.05859,336H59.416A11.42922,11.42922,0,0,1,48,324.5835ZM256,404a76.08614,76.08614,0,0,1-76,76H132A75.98782,75.98782,0,0,1,76.59033,352h1.46826a73.45566,73.45566,0,0,1,52.28418,21.65674A8.0001,8.0001,0,0,0,144,368V336a39.82439,39.82439,0,0,0-1.98584-12.42554A90.11693,90.11693,0,0,0,169.94141,328H180A76.08614,76.08614,0,0,1,256,404Zm-86.05859-92A73.38282,73.38282,0,0,1,126.468,297.875a39.80881,39.80881,0,0,0,9.51611-25.2478L146.0625,192H192v64h16V224.8913a36.74625,36.74625,0,0,1,22.65625,15.51593l2.6875,4.03076A7.999,7.999,0,0,0,240,248h16v64ZM376,312H360V248h20a52.059,52.059,0,0,1,52,52V427.47046l-26.14307,15.68591-21.979-124.54651A7.99886,7.99886,0,0,0,376,312ZM480,472H408V460.5293l32.35059-19.41016L480,460.94434Z"/></svg>
