<?xml version="1.0"?>
<svg xmlns="http://www.w3.org/2000/svg" id="outline" viewBox="0 0 512 512" width="512" height="512"><path d="M491.57812,288.84473l-45.43359-22.7168-46.96191-105.665a68.13467,68.13467,0,0,0-97.792-30.46582L174.68848,207.42578l-12.30762-3.07617a46.30575,46.30575,0,0,0-54.22754,27.72656l-7.2312,18.07813A39.8093,39.8093,0,0,0,88,248H56a39.97629,39.97629,0,0,0-24.66992,71.45117l-4.43653,8.87207A27.41731,27.41731,0,0,0,51.416,368H70.05859a73.45409,73.45409,0,0,1,52.28418,21.65723A8.00066,8.00066,0,0,0,136,384V352a40.0246,40.0246,0,0,0-20.55737-34.93945,40.31057,40.31057,0,0,0,5.70312-6.69287A31.8992,31.8992,0,0,0,144,320H296a24.0275,24.0275,0,0,0,24-24V272a8.00039,8.00039,0,0,0-8-8H300.94434l2.21093-4.42188a8.00157,8.00157,0,0,0-1.498-9.23535l-8-8a8.00207,8.00207,0,0,0-10.09473-.999L261.57812,256h-12.614L334.044,195.22852,400,290.499V312a8.00039,8.00039,0,0,0,8,8h80a8.00039,8.00039,0,0,0,8-8V296A8.00022,8.00022,0,0,0,491.57812,288.84473ZM282.01758,160.5874l24.66064,34.52515-52.062,37.18725-27.33179-38.26464ZM48,265.37622V288a8.00235,8.00235,0,0,0,2.34277,5.65723L64,307.31348V312H56a23.99787,23.99787,0,0,1-8-46.62378ZM96,328a24.0275,24.0275,0,0,1,24,24v15.10645A89.31284,89.31284,0,0,0,70.05859,352H51.416a11.4163,11.4163,0,0,1-10.21094-16.52148l4.4248-8.84961A39.9091,39.9091,0,0,0,56,328Zm-8-16H80v-8a8.00235,8.00235,0,0,0-2.34277-5.65723L64,284.68652V264H88a24,24,0,0,1,0,48Zm176-40a8.00221,8.00221,0,0,0,4.4375-1.34375l16.93457-11.29-4.52734,9.05567A7.99951,7.99951,0,0,0,288,280h16v16a8.00917,8.00917,0,0,1-8,8H144a16,16,0,0,1,0-32ZM144,256a31.8992,31.8992,0,0,0-22.85425,9.63232,40.329,40.329,0,0,0-6.28442-7.2456l8.14746-20.36914A30.30863,30.30863,0,0,1,158.5,219.87109l15.55957,3.88965a7.99428,7.99428,0,0,0,6.11231-.93457l33.42553-20.42676,27.99976,39.19971L221.436,256Zm198.57715-76.55371a8.00083,8.00083,0,0,0-11.22754-1.95606l-11.65234,8.323-23.99268-33.59009,14.02979-8.57373a52.13432,52.13432,0,0,1,74.82714,23.31153L429.585,268.26318l-18.957,9.47852ZM480,304H416V292.94434l24-12,40,20Z"/></svg>
