<?xml version="1.0"?>
<svg xmlns="http://www.w3.org/2000/svg" id="outline" viewBox="0 0 512 512" width="512" height="512"><path d="M349.80273,343.69238l56,16a8.00541,8.00541,0,0,0,9.353-4.11474l8-16a7.9993,7.9993,0,0,0-1.49853-9.23438l-30.83887-30.83887-37.80371-94.50878a46.12567,46.12567,0,0,0-57.41358-26.62842l-55.60058,18.5332V192a46.3233,46.3233,0,0,0,32.97021-13.65674l33.87451-33.87451a23.29,23.29,0,1,0-35.84667-29.3877l-4.47608,6.71387-24.31494,12.15723-20.1648-25.20538A32.03518,32.03518,0,0,0,240.00049,80V56a31.97875,31.97875,0,0,0-48.24231-27.55554l-5.13074-5.1305A24.97005,24.97005,0,0,0,144.00049,40.9707V67.15576a45.80526,45.80526,0,0,1-20.4375,38.188,7.9713,7.9713,0,0,0-3.30359,4.72931,41.70822,41.70822,0,0,0-18.34387,24.10223L90.50586,174.10986A65.11855,65.11855,0,0,0,88,191.99463v.34228a23.45413,23.45413,0,0,0,6.96143,16.74756A23.7046,23.7046,0,0,0,111.792,216h.68848A23.52188,23.52188,0,0,0,136.002,192.47314l-.001-6.9331,12.83349-32.08545,19.166,4.79181V438.11133l-7.15528,14.311a7.99931,7.99931,0,0,0,1.49854,9.23438l32,32A7.99877,7.99877,0,0,0,200.00049,496h16a8.00022,8.00022,0,0,0,7.89111-9.31494l-7.80078-46.80518,23.20654-170.18261,68.58155-27.43213,36.12158,79.46777V336A8.00026,8.00026,0,0,0,349.80273,343.69238Zm56.46387-6.11279-2.45215,4.9043-43.814-12.51807v-5.02173l22.42041-11.2102ZM224.00049,201.06177l-40,5.71411V155.31409l23.0293,23.02966a46.47667,46.47667,0,0,0,16.9707,10.845Zm19.57763-49.9065,32-16a7.99553,7.99553,0,0,0,3.07862-2.71777l5.6543-8.48145a7.29015,7.29015,0,1,1,11.2207,9.19874L261.65723,167.0293a30.628,30.628,0,0,1-43.314.00049l-29.34082-29.34131a16.967,16.967,0,0,1-5.00195-12.07618,13.61222,13.61222,0,0,1,24.2417-8.50341l25.51123,31.88867A8.00088,8.00088,0,0,0,243.57812,151.15527ZM224.00049,80a16,16,0,0,1-32,0v-.001h.001a8.003,8.003,0,0,0,5.65577-2.34277L211.314,64h12.68653Zm-2.165-32h-13.835a8.00121,8.00121,0,0,0-5.65674,2.34277l-10.34326,10.3429V56a15.98644,15.98644,0,0,1,29.835-8Zm-61.835,19.15576V40.9707A8.97,8.97,0,0,1,175.314,34.62793l5.13074,5.13025A31.79663,31.79663,0,0,0,176.00049,56V80a24.02687,24.02687,0,0,1-24,24h-4.14307A61.78319,61.78319,0,0,0,160.00049,67.15576Zm-14.06006,69.083a7.99688,7.99688,0,0,0-9.36816,4.79l-15.99952,40a7.99957,7.99957,0,0,0-.57226,2.97265l.00146,8.4751A7.52192,7.52192,0,0,1,112.48047,200H111.792a7.805,7.805,0,0,1-5.54834-2.26074A7.565,7.565,0,0,1,104,192.3374v-.34179a49.10176,49.10176,0,0,1,1.89062-13.49024l11.40918-39.93408A25.60538,25.60538,0,0,1,141.91992,120h26.621a29.62826,29.62826,0,0,0-.5404,5.6123v16.14148ZM203.31445,480l-25.58007-25.57959L180.94458,448h20.27893l5.33313,32Zm-2.29724-48H184.00049V296h35.56219ZM229.0293,256.57227a8,8,0,0,0-4.95557,6.34668L221.74451,280h-37.744V222.93817l49.13135-7.01874-.002-.01379a7.9767,7.9767,0,0,0,1.40039-.31628l16.84388-5.61463,12.98608,32.46515Zm90.2539-27.88282a7.9993,7.9993,0,0,0-10.2539-4.11718l-29.81348,11.92541-12.6366-31.59131,34.08142-11.36047A30.12668,30.12668,0,0,1,338.15918,210.938l35.67969,89.19873-17.99073,8.99536Z"/></svg>
