<?xml version="1.0"?>
<svg xmlns="http://www.w3.org/2000/svg" id="outline" viewBox="0 0 512 512" width="512" height="512"><path d="M256,88V56a39.97633,39.97633,0,0,0-71.45142-24.66968l-8.87182-4.43579A27.41573,27.41573,0,0,0,136,51.416V70.05859a73.45566,73.45566,0,0,1-21.65674,52.28418A8.0001,8.0001,0,0,0,120,136h24a47.84557,47.84557,0,0,0,12.93164-1.78418l-29.34277,63.55566A82.96441,82.96441,0,0,0,120,232.31152v.69629A86.33616,86.33616,0,0,0,154.36475,301.792c22.438,16.81348,50.49755,37.85547,60.80175,45.583L192.15527,462.43066A8.03038,8.03038,0,0,0,192,464v24a8.00008,8.00008,0,0,0,8,8h80a8.00008,8.00008,0,0,0,8-8V472a8.00091,8.00091,0,0,0-3.2002-6.40039l-27.022-20.2666,33.41065-80.18457a62.55347,62.55347,0,0,0-11.45557-66.13574l-61.814-67.99512,20.01562-33.35938,9.18994-6.12695A37.79628,37.79628,0,0,0,263.1333,168H368a7.99983,7.99983,0,0,0,4.4375-1.34375l24-16A7.99943,7.99943,0,0,0,400,144V112a8.00008,8.00008,0,0,0-8-8H376V88a8.00008,8.00008,0,0,0-8-8h-8a8.00035,8.00035,0,0,0-5.65674,2.34277L332.686,104H252.64716A39.97285,39.97285,0,0,0,256,88Zm-54.40674,16q-1.69051,0-3.36206.12061A23.94637,23.94637,0,0,1,192,88V80h8a8.00035,8.00035,0,0,0,5.65674-2.34277L219.314,64H240V88a24.01592,24.01592,0,0,1-6.11969,16ZM216,32a24.03853,24.03853,0,0,1,22.62378,16H216a8.00035,8.00035,0,0,0-5.65674,2.34277L196.686,64H192V56A24.0275,24.0275,0,0,1,216,32Zm-79.10645,88A89.31284,89.31284,0,0,0,152,70.05859V51.416a11.41669,11.41669,0,0,1,16.522-10.21094l8.84925,4.42456A39.89887,39.89887,0,0,0,176,56V88a32.03635,32.03635,0,0,1-32,32ZM272,476v4H208V469.76636l38.55347-12.85108Zm8-134.91016a46.31132,46.31132,0,0,1-3.58105,17.9043l-34.4032,82.56738-31.46747,10.48926,21.29645-106.48144a8.00116,8.00116,0,0,0-3.04493-7.96973s-12.75451-9.56592-28.96185-21.71777l41.87964-34.89966,26.176,28.79321A46.4601,46.4601,0,0,1,280,341.08984Zm-49.055-71.95752-44.06653,36.72217.69134.82959c-7.91485-5.93359-16.07812-12.05249-23.61029-17.69678A70.25817,70.25817,0,0,1,136,233.00781v-.69629a66.85946,66.85946,0,0,1,3.305-20.62378l63.95984,26.99683Zm7.30407-90.91357-10.68655,7.125a7.99811,7.99811,0,0,0-2.42233,2.54L204.71283,221.9292l-59.13129-24.9585,26.95362-58.38086a32.10529,32.10529,0,0,1,23.47345-18.0747A31.982,31.982,0,0,0,224,168h22.4892A21.85645,21.85645,0,0,1,238.249,178.21875ZM336,120a8.00035,8.00035,0,0,0,5.65674-2.34277L360,99.31348V112a8.00008,8.00008,0,0,0,8,8h16v19.71875L365.57764,152H224a16,16,0,0,1,0-32Z"/></svg>
