<?xml version="1.0"?>
<svg xmlns="http://www.w3.org/2000/svg" id="outline" viewBox="0 0 512 512" width="512" height="512"><path d="M120,496H392a24.0275,24.0275,0,0,0,24-24V40a24.0275,24.0275,0,0,0-24-24H120A24.0275,24.0275,0,0,0,96,40V472A24.0275,24.0275,0,0,0,120,496ZM112,40a8.00917,8.00917,0,0,1,8-8h83.05591l5.78882,11.57764A7.99924,7.99924,0,0,0,216,48h80a7.99924,7.99924,0,0,0,7.15527-4.42236L308.94409,32H392a8.00917,8.00917,0,0,1,8,8V472a8.00917,8.00917,0,0,1-8,8H120a8.00917,8.00917,0,0,1-8-8Z"/><rect x="128" y="48" width="24" height="16"/><rect x="360" y="48" width="24" height="16"/><path d="M194.80615,184a25.07657,25.07657,0,0,0,13.95264-4.22461l17.42145-11.614-9.7696,29.30883c-.03686.11054-.06024.22358-.0921.33515l-.01092-.00311L201.96582,248H152a7.99924,7.99924,0,0,0-7.15527,4.42236l-16,32a7.99968,7.99968,0,0,0,3.57763,10.73291l16,8a7.99909,7.99909,0,0,0,9.23438-1.49853l13.17187-13.17139,33.94532,4.84912a40.16329,40.16329,0,0,0,36.8916-14.60986L258.207,258.04773l23.25153,11.62561L296,313.29834V328a7.99977,7.99977,0,0,0,8,8h40a7.99977,7.99977,0,0,0,8-8v-8a7.99877,7.99877,0,0,0-2.34326-5.65674l-14.05908-14.05908-5.67481-45.3999a40.19089,40.19089,0,0,0-19.8457-29.76807l-34.66681-19.80987,9.7218-14.58265A46.955,46.955,0,0,0,296,192a46.32162,46.32162,0,0,0,32.97021-13.65674l17.373-17.373A19.31354,19.31354,0,0,0,332.68652,128a27.99337,27.99337,0,0,0-12.45556,2.94043l-22.65137,11.32568-8.18359-8.18359A24.03512,24.03512,0,0,0,304,112V84.94434a20.94358,20.94358,0,0,0-30.31055-18.73291l-13.26709,6.6333A7.99924,7.99924,0,0,0,256,80v32a23.88505,23.88505,0,0,0,1.3761,8H232.419a32.11568,32.11568,0,0,0-19.99024,7.01221l-29.3706,23.49609A18.80639,18.80639,0,0,0,194.80615,184Zm66.35224,31.59015,16.2044,9.25983-13.57495,18.09985-18.52075-9.26038A23.86991,23.86991,0,0,1,232,212.22314v-2.46466Zm-110.738,70.676-3.6875-1.84375L156.94434,264H160v12.68652Zm56.61621-8.7705L176,273.06183V264h32a7.98593,7.98593,0,0,0,6.72217-3.69482l15.13476,7.56738-.68554.85693A24.09924,24.09924,0,0,1,207.03662,277.49561Zm33.04212-22.40033L219.5163,244.814l3.03582-10.62543A39.94132,39.94132,0,0,0,238.11133,248l5.45971,2.72986ZM312,320v-2.23407l13.83936-4.6131L332.68652,320Zm2.04639-63.13135,5.20215,41.61591-10.189,3.3963-13.47021-40.41065a7.99888,7.99888,0,0,0-4.01172-4.62548L278.333,250.22241l13.02942-17.37256,10.7763,6.158A24.115,24.115,0,0,1,314.04639,256.86865Zm-53.731-57.76416-25.86035-5.17187,11.0907-33.2721a25.40854,25.40854,0,0,0,1.76818,1.96692l15.71583,15.71582a47.09031,47.09031,0,0,0,7.194,5.899Zm39.26221-39.94922,27.8081-13.90381A11.91345,11.91345,0,0,1,332.68652,144a3.31388,3.31388,0,0,1,2.34327,5.65674l-17.373,17.373a30.628,30.628,0,0,1-43.31348,0L258.62744,151.314A8.97072,8.97072,0,0,1,271.314,138.62744l19.0293,19.0293A8.001,8.001,0,0,0,299.57764,159.15527ZM272,112v-8h16v8a8,8,0,0,1-16,0Zm8.8457-31.478A4.94339,4.94339,0,0,1,288,84.94434V88H272V84.94434Zm-87.79248,82.48047,29.37061-23.49609A16.05664,16.05664,0,0,1,232.419,136h4.48175l-5.33332,16H224a7.996,7.996,0,0,0-4.43751,1.34375l-19.6787,13.11865A9.12522,9.12522,0,0,1,194.80615,168a2.80624,2.80624,0,0,1-1.75293-4.99756Z"/><path d="M368,352H208a7.99977,7.99977,0,0,0-8,8v24H144a7.99977,7.99977,0,0,0-8,8v64a7.99977,7.99977,0,0,0,8,8H272a7.99977,7.99977,0,0,0,8-8V432h88a7.99977,7.99977,0,0,0,8-8V360A7.99977,7.99977,0,0,0,368,352Zm-8,32H344V368h16Zm-32,0H248V368h80Zm-32,32H184V400H296Zm-80-48h16v16H216Zm-64,32h16v16H152Zm0,32h80v16H152Zm112,16H248V432h16Zm48-48h16v16H312Zm48,16H344V400h16Z"/><rect x="296" y="440" width="16" height="16"/><rect x="328" y="440" width="16" height="16"/><rect x="168" y="360" width="16" height="16"/></svg>
