<?xml version="1.0"?>
<svg xmlns="http://www.w3.org/2000/svg" id="outline" viewBox="0 0 512 512" width="512" height="512"><path d="M344,224H264V164.84473a61.75773,61.75773,0,0,0-17.44043-43.07544A39.81307,39.81307,0,0,0,256,96V48a32.00037,32.00037,0,0,0-51.19971-25.60059L179.2002,41.59961A8.00229,8.00229,0,0,0,176,48V96a39.75777,39.75777,0,0,0,3.97131,17.3667,54.74133,54.74133,0,0,0-32.43078,21.51221l-14.82227,20.752A67.89945,67.89945,0,0,0,120,195.31738a68.607,68.607,0,0,0,14.38281,41.91992L144,249.60205V264a64.09875,64.09875,0,0,0,51.76331,62.813L191.01514,328H176a8.00008,8.00008,0,0,0-8,8v96a8.00008,8.00008,0,0,0,8,8h16a7.99863,7.99863,0,0,0,6.9458-4.03125L229.18994,383.042l39.96326-8.88086-9.71179,10.92578-21.9712,7.32325a8.00133,8.00133,0,0,0-4.98876,10.32422l32,88A8.00045,8.00045,0,0,0,272,496h16a8.00023,8.00023,0,0,0,7.91943-6.86816l7.65039-53.55079,71.94678-78.4873A62.56155,62.56155,0,0,0,392,314.71777V272A48.054,48.054,0,0,0,344,224ZM240,96a24,24,0,0,1-48,0V72h48ZM214.39941,35.2002A16.00024,16.00024,0,0,1,240,48v8H192V52ZM160.56006,144.17969A38.71134,38.71134,0,0,1,192,128v-.022a39.89269,39.89269,0,0,0,41.90039,3.7771A45.784,45.784,0,0,1,248,164.84473V232H204.94434l-11.82471-23.64941,21.74023-36.23438-13.71972-8.23242-10.54077,17.56787-38.384-25.58936Zm-17.45654,24.8374,39.25488,26.16968-5.21826,8.697a8.00146,8.00146,0,0,0-.29541,7.69433l24,48a8.00049,8.00049,0,0,0,4.62548,4.01172l22.2085,7.40235,2.5874,2.58789L227.05566,280H187.9126l-40.8999-52.585A52.53322,52.53322,0,0,1,136,195.31738,51.93769,51.93769,0,0,1,143.10352,169.01709ZM160.491,270.80469l17.19409,22.10644A7.999,7.999,0,0,0,184,296h48a7.99967,7.99967,0,0,0,7.15527-4.42188l8-16a8.00091,8.00091,0,0,0-1.49853-9.23535l-8-8a8.01033,8.01033,0,0,0-3.127-1.93261L213.67334,249.458l-.729-1.458H255.0166L288,256.24609V312H208A48.06779,48.06779,0,0,1,160.491,270.80469ZM187.35742,424H184V344h4.15527l26.20142,32.752Zm39.77442-56.89111L206.03442,340.7373,256.9834,328h53.20166l-22.87622,25.73584ZM277.60352,480l-27.27637-75.00977,10.911-3.63671,26.3529,32.9414L281.06152,480Zm86.11865-133.71777-67.30933,73.42822-21.9508-27.439,59.51745-66.957A7.9999,7.9999,0,0,0,328,312H304V260.24609l36.61719,9.1543a46.71226,46.71226,0,0,1,23.105,76.88184Zm-19.22412-92.40332L288.98376,240H344a32.03635,32.03635,0,0,1,32,32v.85645A62.58937,62.58937,0,0,0,344.49805,253.87891Z"/></svg>
