<?xml version="1.0"?>
<svg xmlns="http://www.w3.org/2000/svg" id="outline" viewBox="0 0 512 512" width="512" height="512"><path d="M384,288V235.31348l5.96777-5.9668A34.03235,34.03235,0,0,0,400,205.126a34.41932,34.41932,0,0,0-13.70117-27.40235l-15.48047-11.60986A32.05316,32.05316,0,0,0,392,136V112a32.05794,32.05794,0,0,0-24-30.9873V40a24.0275,24.0275,0,0,0-24-24H328a8.00039,8.00039,0,0,0-8,8V35.05566l-4.42188-2.21093a8.00182,8.00182,0,0,0-9.23535,1.498l-8,8a8.00082,8.00082,0,0,0-.999,10.09473L312,74.42188V93.0293a24.97079,24.97079,0,0,0-40,19.9414v34.18457a45.80666,45.80666,0,0,1-20.4375,38.18848A7.99967,7.99967,0,0,0,256,200H260.919a71.43854,71.43854,0,0,0,43.12231-14.35962c-.02588.55566-.04126,1.113-.04126,1.6731V488a8.00039,8.00039,0,0,0,8,8h72a8.00039,8.00039,0,0,0,8-8V472a8.0009,8.0009,0,0,0-3.2002-6.40039l-28.18042-21.13525,23.29175-155.27784A7.90678,7.90678,0,0,0,384,288Zm-8-152a15.99656,15.99656,0,0,1-8,13.835V120h8Zm-2.165-32H368V98.165A16.09831,16.09831,0,0,1,373.835,104ZM324.42188,55.15527A7.99951,7.99951,0,0,0,336,48V32h8a8.00917,8.00917,0,0,1,8,8V180a12,12,0,0,1-24,0V72a8.00221,8.00221,0,0,0-1.34375-4.4375l-11.29-16.93457Zm20.34765,387.12085L320,452.18408V336h40.71069ZM277.64062,181.46289A61.79906,61.79906,0,0,0,288,147.15527V112.9707a8.97,8.97,0,0,1,15.31348-6.34277L312,115.31445v35.03711A55.30542,55.30542,0,0,1,277.64062,181.46289ZM376,480H320V469.416l30.79688-12.31836L376,476ZM363.1106,320H320V272h48v15.40332Zm7.23217-93.65723A8.00235,8.00235,0,0,0,368,232v24H320V199.56934a27.97547,27.97547,0,0,0,47.73511-15.76856l8.96411,6.72266A18.34258,18.34258,0,0,1,384,205.126a18.13025,18.13025,0,0,1-5.34668,12.90625Z"/><path d="M263.59863,333.65723l16.97071-16.97071a31.979,31.979,0,0,0-14.62793-53.59741V255.833a24.9712,24.9712,0,0,0-42.62793-17.65723l-24.17286,24.17285a45.80016,45.80016,0,0,1-41.45312,12.55176,7.99978,7.99978,0,0,0-7.22656,13.501l10.75293,10.75488a47.70845,47.70845,0,0,0,17.72925,11.20557,132.38016,132.38016,0,0,0-53.20777,32.58838,46.8914,46.8914,0,0,0,20.34424,78.26562,65.14631,65.14631,0,0,0,10.896,22.75195l2.52587,3.36768-12.62255,10.519A7.99862,7.99862,0,0,0,144,464v24a8.00039,8.00039,0,0,0,8,8h88a8.00022,8.00022,0,0,0,7.15527-4.42188l8-16a8.00157,8.00157,0,0,0-1.498-9.23535l-8-8a8.02088,8.02088,0,0,0-3.127-1.93261L229.189,451.96289l10.38721-5.93555a32.59485,32.59485,0,0,0-5.86328-59.22265L223.04,383.24707l8.65137-10.38184A35.90549,35.90549,0,0,0,240,349.919a29.86959,29.86959,0,0,0-.82593-6.95948c.59839.03345,1.19751.05518,1.79663.05518A31.90369,31.90369,0,0,0,263.59863,333.65723Zm-11.31445-11.31446a16,16,0,0,1-22.62793-22.62695l.001-.001.001.001a8.00007,8.00007,0,0,0,5.65625,2.34277h19.31348l8.9707,8.97071Zm21.09692-24.15893-9.78247-9.78247a8.00232,8.00232,0,0,0-5.65722-2.34278h-14.627l3.31348-3.31347a15.986,15.986,0,0,1,26.75317,15.43872Zm-62.926-24.52075,24.17285-24.17286a8.97071,8.97071,0,0,1,15.31348,6.34278v7.25635a31.79776,31.79776,0,0,0-14.62793,8.34228l-11.31275,11.31372-5.09985,5.0979-5.99463,3.99658a32.1028,32.1028,0,0,1-36.62012-.78222A61.79689,61.79689,0,0,0,210.45508,273.66309Zm-9.97241,47.91723a29.89263,29.89263,0,0,0-13.11744,8.86792l-26.85449,31.33008-23.59448-7.37353c.04541-.0459.08765-.09424.13354-.14014A116.119,116.119,0,0,1,200.48267,321.58032ZM128,376.11133a31.11111,31.11111,0,0,1,.90088-7.44824l22.18457,6.9331a64.89877,64.89877,0,0,0-7.04419,27.59815A31.00054,31.00054,0,0,1,128,376.11133Zm32,91.63574,9.11377-7.59521L183.99976,480H160Zm68.65234-65.76269a16.59383,16.59383,0,0,1,2.98633,30.15039l-14.4873,8.27856-15.65625-31.31177L212.04028,396.447Zm-9.252-39.36133-33.5459,40.25586a7.99836,7.99836,0,0,0-1.00976,8.69921l24,48a8.001,8.001,0,0,0,4.625,4.01172l22.209,7.40235,2.58691,2.58789L235.05566,480H204l-34.22461-45.63184a48.87967,48.87967,0,0,1,1.99219-61.13769l27.74609-32.37012A13.91864,13.91864,0,0,1,224,349.919,19.88419,19.88419,0,0,1,219.40039,362.62305Z"/></svg>
