<?xml version="1.0"?>
<svg xmlns="http://www.w3.org/2000/svg" id="outline" viewBox="0 0 512 512" width="512" height="512"><path d="M380.11621,465.13965l-36.80566-22.083L312.17969,248.49023l14.94336-52.29882,31.85156-31.85157a58.129,58.129,0,0,0,2.10351-79.98925L301.94629,18.64844a7.99612,7.99612,0,0,0-10.38379-1.30469l-24,16a7.99931,7.99931,0,0,0-2.71777,10.23437L271.05566,56l-6.21093,12.42188a8.00157,8.00157,0,0,0,1.498,9.23535l8,8A8.00235,8.00235,0,0,0,280,88h11.4707l18.45606,30.75977L288,140.686V122.42188a26.42195,26.42195,0,0,0-41.07812-21.98438L227.5625,113.34375A7.99943,7.99943,0,0,0,224,120v20.686l-21.92676-21.92627L220.5293,88H232a8.00235,8.00235,0,0,0,5.65723-2.34277l8-8a8.00157,8.00157,0,0,0,1.498-9.23535L240.94434,56l6.21093-12.42188a7.99931,7.99931,0,0,0-2.71777-10.23437l-24-16a7.99584,7.99584,0,0,0-10.38379,1.30469L150.92188,84.35059a58.129,58.129,0,0,0,2.10351,79.98925L184.877,196.19141l14.94336,52.29882L168.68945,443.05664l-36.80566,22.083A8.00153,8.00153,0,0,0,128,472v16a8.00039,8.00039,0,0,0,8,8h72a8.00039,8.00039,0,0,0,8-8V473.12012l40-140,40,140V488a8.00039,8.00039,0,0,0,8,8h72a8.00039,8.00039,0,0,0,8-8V472A8.00153,8.00153,0,0,0,380.11621,465.13965ZM302.86035,75.88379A8.00153,8.00153,0,0,0,296,72H283.31348l-1.5791-1.58008,5.42089-10.8418a8.00257,8.00257,0,0,0,0-7.15624l-4.84179-9.68262,12.36816-8.24512,54.50391,60.55957a42.12771,42.12771,0,0,1-1.52539,57.97168L344,156.68555,319.31445,132l6.34278-6.34277a8.00087,8.00087,0,0,0,1.20312-9.77344ZM255.79785,113.749A10.42284,10.42284,0,0,1,272,122.42188V128H240v-3.71875ZM272,144v16a16,16,0,0,1-32,0V144ZM152,123.23633a42.065,42.065,0,0,1,10.81445-28.18262l54.50391-60.55957,12.36816,8.24512-4.84179,9.68262a8.00257,8.00257,0,0,0,0,7.15624l5.42089,10.8418L228.68652,72H216a8.00153,8.00153,0,0,0-6.86035,3.88379l-24,40a8.00087,8.00087,0,0,0,1.20312,9.77344L192.68555,132,168,156.68555l-3.66016-3.66016A41.84868,41.84868,0,0,1,152,123.23633Zm47.69238,66.56543a8.01531,8.01531,0,0,0-2.03515-3.459L179.31445,168,204,143.31445,224.19653,163.511a31.99627,31.99627,0,0,0,63.60694,0L308,143.31445,332.68555,168l-18.34278,18.34277a8.01531,8.01531,0,0,0-2.03515,3.459L297.96533,240H214.03467ZM144,480v-3.4707l31.50342-18.90137L200,476v4Zm59.501-21.37451-18.83887-14.12891L200.63818,344.646l32.34766,10.78271Zm44.80664-156.82373-10.92188,38.22705L203.2002,328.6333,214.82153,256h82.35694l11.62133,72.6333-34.18554,11.39551-10.92188-38.22705a8.00043,8.00043,0,0,0-15.38476,0Zm30.70654,53.627L311.36182,344.646l15.97607,99.85058L308.499,458.62549ZM368,480H312v-4l24.49658-18.37207L368,476.5293Z"/></svg>
