<?xml version="1.0"?>
<svg xmlns="http://www.w3.org/2000/svg" id="outline" viewBox="0 0 512 512" width="512" height="512"><path d="M344,496h80a8.00008,8.00008,0,0,0,8-8V472a8.00091,8.00091,0,0,0-3.88428-6.86035l-37.25488-22.35254L328.52832,216.83228,353.689,166.51074A59.77718,59.77718,0,0,0,300.22314,80H288V42.42188A26.42232,26.42232,0,0,0,246.92139,20.4375L227.5625,33.34375A7.99943,7.99943,0,0,0,224,40V80H211.77686A59.77718,59.77718,0,0,0,158.311,166.51074l25.16064,50.32154L121.13916,442.78711,83.88428,465.13965A8.00091,8.00091,0,0,0,80,472v16a8.00008,8.00008,0,0,0,8,8h80a8.00008,8.00008,0,0,0,8-8V473.74609l53.20227-116.07763a39.91946,39.91946,0,0,0,53.59546,0L336,473.74609V488A8.00008,8.00008,0,0,0,344,496Zm72-19.4707V480H352v-3.47l32.00024-19.2002ZM338.62524,313.59937l-42.822,18.35229C295.93127,330.65112,296,329.3335,296,328a39.77875,39.77875,0,0,0-3.17651-15.61719l.90112-.67578a38.52032,38.52032,0,0,0,13.79724-41.7727A23.86115,23.86115,0,0,0,312,256v-6.11133l5.83215-11.6643ZM228.27673,299.20679l-.40075-.30054a22.46534,22.46534,0,0,1-8.92566-19.44531A23.98519,23.98519,0,0,0,246.62378,264h18.75244a23.98519,23.98519,0,0,0,27.67346,15.46094,22.46534,22.46534,0,0,1-8.92566,19.44531l-.40075.30054a39.8942,39.8942,0,0,0-55.44654,0ZM232,233.59961V256a8,8,0,0,1-16,0v-8a7.99934,7.99934,0,0,0-.84473-3.57812L187.0437,188.19873l22.31909-8.92773ZM302.63721,179.271l22.31909,8.92773-28.11157,56.22315A7.99934,7.99934,0,0,0,296,248v8a8,8,0,0,1-16,0V233.59961ZM255.79639,33.75A10.42283,10.42283,0,0,1,272,42.42188V48H240V44.28125ZM272,64V80a16,16,0,0,1-32,0V64ZM168,139.77734A43.82681,43.82681,0,0,1,211.77686,96h16.52832a31.96885,31.96885,0,0,0,55.38964,0h16.52832a43.777,43.777,0,0,1,39.15528,63.35449l-7.242,14.48389-23.34484-9.33789,10.59314-25.42334-14.76954-6.1543-40,96A8.0014,8.0014,0,0,0,264,232v16H248V232a8.0014,8.0014,0,0,0-.61523-3.07715l-40-96-14.76954,6.1543,10.59314,25.42334-23.34484,9.33789-7.242-14.48389A43.99832,43.99832,0,0,1,168,139.77734Zm32,110.11133V256a23.86115,23.86115,0,0,0,4.47815,13.93433,38.52,38.52,0,0,0,13.79773,41.7727l.90088.67578A39.7736,39.7736,0,0,0,216,328c0,1.3335.06873,2.65112.19678,3.95166l-42.822-18.35229,20.79309-75.375ZM96,480v-3.4707l31.99976-19.19947L160,476.53V480Zm68.4519-19.459-27.12353-16.27393L169.08008,329.167l46.45923,19.91113ZM256,352a24,24,0,1,1,24-24A24.0275,24.0275,0,0,1,256,352Zm40.46069-2.92188L342.91992,329.167l31.75171,115.1001L347.5481,460.541Z"/></svg>
