<?xml version="1.0"?>
<svg xmlns="http://www.w3.org/2000/svg" id="outline" viewBox="0 0 512 512" width="512" height="512"><path d="M465.37305,125.37207a30.44851,30.44851,0,0,0-15.04688,3.9458,30.62451,30.62451,0,0,0-49.23828-8.34717L378.05957,144H349.37305a8.00065,8.00065,0,0,0-5.65723,13.65723l4.1582,4.158L236.34277,179.42578A42.93691,42.93691,0,0,0,209.8103,194.512L45.57812,304H24a8.00039,8.00039,0,0,0-8,8v80a8.00039,8.00039,0,0,0,8,8H40a7.99943,7.99943,0,0,0,6.65625-3.5625l30.77637-46.16309L240.14526,272.7915l9.04224,6.4585-44.96387,25.69434-15.80175,7.90039A7.99912,7.99912,0,0,0,184,320v72a8.00039,8.00039,0,0,0,8,8h16a8,8,0,0,0,6.94629-4.03125l30.41406-53.22461,41.44043-12.43164A57.79208,57.79208,0,0,0,321.32959,248h33.88428a33.62854,33.62854,0,0,0,25.61133,15.83691l11.20507,128.85645A7.99985,7.99985,0,0,0,400,400h48a8.00039,8.00039,0,0,0,8-8V376a8.00235,8.00235,0,0,0-2.34277-5.65723L440,356.68652V207.73022a30.51251,30.51251,0,0,0,25.65723-8.7l17.373-17.373,4-4.001a30.62842,30.62842,0,0,0-21.65722-52.28418Zm-84,34.62793a8.00231,8.00231,0,0,0,5.65722-2.34277l25.37207-25.37305a14.61856,14.61856,0,0,1,24.84571,8.52637l-5.53223,5.53222-9.37305,9.37305-.01757.01856-14.125,14.124a20.96877,20.96877,0,0,1-29.65528-.001L368.68652,160ZM59.47412,313.96533l97.55371-65.03613,27.27686,32.73193L74.47192,333.9624ZM35.71875,384H32V320H43.99976l18.2041,24.27246ZM199.21411,274.56152l-28.79785-34.55761,29.62183-19.748C200.01636,220.821,200,221.3877,200,221.958a43.14441,43.14441,0,0,0,18.03125,35.03808l7.228,5.1626Zm28.11694-30.585a27.05867,27.05867,0,0,1,11.50782-48.74609l14.416-2.27637,33.16553,37.311-32.6189,32.61865ZM203.35742,384H200V324.94434l7.15527-3.57764,22.39478,16.7959Zm78.8457-69.01367-40.634,12.19043-19.02856-14.27149,45.42822-25.959a7.99982,7.99982,0,0,0,.68164-13.45606L267.002,272.3125l30.06739-30.06738,4.37011,4.916a41.8113,41.8113,0,0,1-19.23633,67.8252Zm144.13965,50.6709L440,379.31348V384H407.335L394.13867,232.25488A14.95923,14.95923,0,0,1,409.042,216,14.97473,14.97473,0,0,1,424,230.958V360A8.00235,8.00235,0,0,0,426.34277,365.65723ZM424,203.86523a30.95049,30.95049,0,0,0-45.80078,29.77442v.001l1.19629,13.75709A17.77364,17.77364,0,0,1,368,238.11133l-.84473-1.68945A7.99912,7.99912,0,0,0,360,232H309.36963l-37.34229-42.01074,89.22071-14.08692-.13379-.84741,6.11621,6.116a36.96859,36.96859,0,0,0,47.21826,4.23266A30.67233,30.67233,0,0,0,424,200.53857Zm30.34277-16.14941a14.62689,14.62689,0,1,1-20.68554-20.68555l3.71582-3.71679,2.34277,2.34375A8.00235,8.00235,0,0,0,445.37305,168h12.68652l8,8ZM461.37305,152H448.687l6.34326-6.34375A14.61813,14.61813,0,0,1,477.22754,164.54l-10.19727-10.19727A8.00231,8.00231,0,0,0,461.37305,152Z"/></svg>
