<?xml version="1.0"?>
<svg xmlns="http://www.w3.org/2000/svg" id="outline" viewBox="0 0 512 512" width="512" height="512"><path d="M56.60938,131.06152A8,8,0,0,0,64,136H88a47.72507,47.72507,0,0,0,18.17993-3.58618,31.76852,31.76852,0,0,0-2.13281,9.8728L69.23047,225.8457A68.001,68.001,0,0,0,132,320h57.62207l-37.3584,141.96387A8.00592,8.00592,0,0,0,152,464v24a8.00039,8.00039,0,0,0,8,8h96a8.00039,8.00039,0,0,0,8-8V464a8.00153,8.00153,0,0,0-3.88379-6.86035l-34.21484-20.52832,48.665-125.137,158.60937-23.56128a8,8,0,0,0,6.669-6.34375l16-80A8.00012,8.00012,0,0,0,448,192H424a8.00235,8.00235,0,0,0-5.65723,2.34277L380.68652,232H171.09985L182.585,197.544A62.20763,62.20763,0,0,0,204.69946,176H296a24.0275,24.0275,0,0,0,24-24v-2.23438l18.53027-6.17578A8.00026,8.00026,0,0,0,344,136V120a8.00039,8.00039,0,0,0-8-8H304V96a8.00039,8.00039,0,0,0-8-8h-8a8.00235,8.00235,0,0,0-5.65723,2.34277L260.68652,112H191.978A39.79015,39.79015,0,0,0,200,88V56a39.97628,39.97628,0,0,0-71.4502-24.67114l-9.08886-4.54859A26.38605,26.38605,0,0,0,107.70605,24h-.28027A27.43875,27.43875,0,0,0,79.97852,51.46191L79.99219,70.043a73.42674,73.42674,0,0,1-21.64942,52.2998A8.00028,8.00028,0,0,0,56.60938,131.06152ZM80,252q0-2.00976.15234-4H168v56H132A52.059,52.059,0,0,1,80,252ZM248,468.5293V480H168V469.27539l47.3916-20.31055ZM427.31348,208h10.92773l-12.98242,64.91406L414.0752,274.5752l-20.001-33.335Zm-47.84375,40,17.47265,29.12036L279.49805,294.56641A55.03913,55.03913,0,0,0,263.64648,248ZM264,287.1543a38.989,38.989,0,0,1-2.66211,14.19043L209.76172,433.96948l-37.856,16.22388,35.83057-136.15723A7.99923,7.99923,0,0,0,200,304H184V248h40.8457A39.19852,39.19852,0,0,1,264,287.1543ZM172.42188,184.84473a8.001,8.001,0,0,0-4.01172,4.625L154.2334,232H84l27.90674-66.97559A31.927,31.927,0,0,0,136,176h48.54736A45.75252,45.75252,0,0,1,172.42188,184.84473ZM264,128a8.00235,8.00235,0,0,0,5.65723-2.34277L288,107.31348V120a8.00039,8.00039,0,0,0,8,8h32v2.23438l-18.53027,6.17578A8.00026,8.00026,0,0,0,304,144v8a8.00917,8.00917,0,0,1-8,8H136a16,16,0,0,1,0-32ZM136,88V80h8a8.00235,8.00235,0,0,0,5.65723-2.34277L163.31348,64H184V88a24,24,0,0,1-48,0Zm24-56a24.0384,24.0384,0,0,1,22.62378,16H160a8.00235,8.00235,0,0,0-5.65723,2.34277L140.68652,64H136V56A24.0275,24.0275,0,0,1,160,32ZM95.99219,70.03418l-.01367-18.58789A11.43795,11.43795,0,0,1,107.42578,40h.28027a10.30451,10.30451,0,0,1,4.59278,1.08789l9.07275,4.541A39.89294,39.89294,0,0,0,120,56V88a32.03667,32.03667,0,0,1-32,32H80.89355A89.28287,89.28287,0,0,0,95.99219,70.03418Z"/></svg>
