<?xml version="1.0"?>
<svg xmlns="http://www.w3.org/2000/svg" id="outline" viewBox="0 0 512 512" width="512" height="512"><path d="M24,376H40a7.99965,7.99965,0,0,0,6.85986-3.88379l22.83692-38.06152L265.95557,232H336.626l-8.14356,14.6582a67.40568,67.40568,0,0,0,11.26026,80.398l46.60058,46.60059A7.99877,7.99877,0,0,0,392,376h40a7.99977,7.99977,0,0,0,8-8V352a7.99943,7.99943,0,0,0-3.5625-6.65625L413.769,330.231l-28.3042-42.45606,37.16309-61.939a65.76187,65.76187,0,0,0,7.74023-19.31983A31.88013,31.88013,0,0,0,440,208h24a32,32,0,0,0,0-64H440a31.79356,31.79356,0,0,0-14.90259,3.69446A36.72167,36.72167,0,0,0,398.11133,136H280.95557a63.79581,63.79581,0,0,0-35.501,10.749L45.57764,280H24a7.99977,7.99977,0,0,0-8,8v80A7.99977,7.99977,0,0,0,24,376Zm33.83838-84.94434,124.37475-82.9165,17.30372,40.37524L68.147,316.82666ZM401.34375,340.4375a7.99882,7.99882,0,0,0,2.21875,2.21875L424,356.28125V360H395.314l-44.25781-44.25732a51.40656,51.40656,0,0,1-8.5874-61.314l5.60889-10.0957,31.99511,21.33008-10.93261,18.22119a7.99908,7.99908,0,0,0,.20361,8.55322ZM480,176a15.99656,15.99656,0,0,1-8,13.835V176a8.00121,8.00121,0,0,0-2.34277-5.65674L459.31433,160H464A16.01833,16.01833,0,0,1,480,176Zm-39.999-15.999a8.003,8.003,0,0,0,2.34277,5.65576L456,179.31348V192H440a16,16,0,0,1,0-32Zm-26.75049-1.53406a31.90258,31.90258,0,0,0,2.509,38.38794,49.76644,49.76644,0,0,1-6.85132,20.74866L388.31372,251.928,355.87329,230.3009l19.11987-34.41565-13.98632-7.7705L345.51489,216H296V152H398.11133A20.817,20.817,0,0,1,413.25049,158.46692Zm-158.9209,1.5946A47.83393,47.83393,0,0,1,280,152.01758V216H264a8.00178,8.00178,0,0,0-3.69092.90234l-46.55737,24.20984-17.99951-41.999ZM32,296H42.58374l12.51465,31.28662L35.4707,360H32Z"/></svg>
