<?xml version="1.0"?>
<svg xmlns="http://www.w3.org/2000/svg" id="outline" viewBox="0 0 512 512" width="512" height="512"><path d="M24,472H488a7.99977,7.99977,0,0,0,8-8V152a7.99977,7.99977,0,0,0-8-8H448a8.00055,8.00055,0,0,0-6.78418,3.75977L423.56567,176H328a7.99924,7.99924,0,0,0-7.15527,4.42236l-16,32A7.99974,7.99974,0,0,0,312,224H432V368H400a7.99924,7.99924,0,0,0-7.15527,4.42236L379.05591,400H368a7.99977,7.99977,0,0,0-8,8v8H344v-8a7.99927,7.99927,0,0,0-3.2002-6.3999l-29.72753-22.2959-21.876-87.50391a39.86008,39.86008,0,0,0-6.03613-13.23633l-51.01172-72.87359,5.35107-13.75983c.83.04358,1.66309.06946,2.50049.06946a46.32162,46.32162,0,0,0,32.97021-13.65674l33.875-33.875a23.29,23.29,0,1,0-35.84716-29.38721l-4.47608,6.71387L242.207,133.95215l-5.09277-6.36585A32.04746,32.04746,0,0,0,264,96V72a32,32,0,0,0-64,0V96c0,.03564.00256.07068.00269.10632C199.21094,96.04321,198.41528,96,197.6123,96a29.65888,29.65888,0,0,0-29.26464,25.07666l-21.65723,14.28711a41.59481,41.59481,0,0,0-6.50732,64.13281l8.30493,8.30487L128.73242,291.9541,50.34326,370.34326a8.0004,8.0004,0,0,0-.48926,10.77832L78.91943,416H48a8.0001,8.0001,0,0,0-6.85986,3.88428l-24,40A8,8,0,0,0,24,472Zm456-72H448V224h32ZM452.43408,160H480v48H422.43433ZM332.94434,192h80.62133l-10,16H324.94434Zm72,192H432v16H396.94421ZM376,416H480v40H376Zm-48-4v4H280V404.94409l23.15552-11.5777ZM273.67432,295.68164l21.008,84.03308-18.23132,9.11566-28.9325-79.56427a8.00535,8.00535,0,0,0-1.86181-2.92285L232.215,292.90149l26.17956-21.81635,11.65772,16.65363A23.92608,23.92608,0,0,1,273.67432,295.68164Zm-24.4878-37.751-28.33227,23.61011-13.1062-13.10626,17.42529-44.808Zm-82.86145-56.103,45.714,11.42846L186.911,277.871l-35.64807-11.88269Zm51.55945-3.60285-47.90234-11.97558,8.54687-36.40674,28.50074,28.50079a46.56754,46.56754,0,0,0,14.71582,9.95294ZM248,96a15.97369,15.97369,0,0,1-26.57385,11.976l-.68982-.86224a30.055,30.055,0,0,0-2.12341-2.37726A15.895,15.895,0,0,1,216,96v-.001h.001a8.003,8.003,0,0,0,5.65576-2.34277L235.31348,80H248ZM232,56a15.99656,15.99656,0,0,1,13.835,8H232a8.00121,8.00121,0,0,0-5.65674,2.34277L216,76.68567V72A16.01833,16.01833,0,0,1,232,56Zm-34.3877,56a13.52074,13.52074,0,0,1,8.9375,3.36847,32.2866,32.2866,0,0,0,3.10926,3.51153l24.09387,30.11756a7.99888,7.99888,0,0,0,9.82471,2.15771l32-16a7.99558,7.99558,0,0,0,3.07861-2.71777l5.6543-8.48145a7.291,7.291,0,0,1,11.22119-1.11084,7.29838,7.29838,0,0,1,0,10.30958l-33.875,33.875a30.628,30.628,0,0,1-43.31348,0L189.002,137.68848A16.967,16.967,0,0,1,184,125.6123,13.62771,13.62771,0,0,1,197.6123,112Zm-46.11572,76.18311a25.59553,25.59553,0,0,1,4.0044-39.46387l8.11364-5.35254L152.79,189.4765Zm-9.83984,113.47363a7.99767,7.99767,0,0,0,2.13135-3.82813l3.80285-16.199L181.105,292.801l-8.89746,22.87922a23.884,23.884,0,0,1-9.05518,11.2705l-59.727,39.81787-17.92016-8.96014ZM73.57959,369.73389,96,380.94409v30.55933l-29.17725-35.0127ZM112,380.28174l60.02734-40.01807A39.80347,39.80347,0,0,0,187.11963,321.479l14.29285-36.753,31.6759,31.67591L264,401.40967V416H112ZM52.5293,432H360v24H38.12939Z"/></svg>
