<?xml version="1.0"?>
<svg xmlns="http://www.w3.org/2000/svg" id="outline" viewBox="0 0 512 512" width="512" height="512"><path d="M382.62109,144.25488l13.80079,6.90039A7.99934,7.99934,0,0,0,400,152h8a32,32,0,0,0,0-64H262.97852A32.02412,32.02412,0,0,0,264,80V42.42236A26.42138,26.42138,0,0,0,222.92188,20.438L203.5625,33.34375A7.99943,7.99943,0,0,0,200,40V80a31.98616,31.98616,0,0,0,2.26074,11.80725A64.10609,64.10609,0,0,0,160,152V348.209L74.93457,417.80811a7.99908,7.99908,0,0,0-2.08984,9.76953l32,64A7.99979,7.99979,0,0,0,112,496h24a8.00008,8.00008,0,0,0,8-8V443.84521l69.61816-55.69482a39.90876,39.90876,0,0,0,12.96-18.58594l17.69947-53.09814,37.33374,24.88916L336,465.67334V488a8.00008,8.00008,0,0,0,8,8h88a8.00008,8.00008,0,0,0,8-8V472a7.99943,7.99943,0,0,0-3.5625-6.65625l-45.71582-30.47754-44.74414-134.23a40.21168,40.21168,0,0,0-9.66211-15.63477l-79.33008-79.32958L270.252,159.2373ZM424,120a16.01833,16.01833,0,0,1-16,16h-6.11133l-14.31055-7.15527a8.01082,8.01082,0,0,0-4.63574-.77442L296,139.6626V104H408A16.01833,16.01833,0,0,1,424,120ZM231.79785,33.75A10.42171,10.42171,0,0,1,248,42.42236V48H216V44.28174ZM216,80V64h32V80a15.96783,15.96783,0,0,1-2.15527,8H224c-1.92139,0-3.81909.10059-5.698.26733A15.97311,15.97311,0,0,1,216,80ZM116.94434,480,90.01562,426.14209l3.10474-2.54028L128,444.52954V480Zm94.4541-115.49463a23.94131,23.94131,0,0,1-7.77539,11.15088l-68.27686,54.622-29.06885-17.44129,66.78809-54.645A8.00008,8.00008,0,0,0,176,352V330.6062l42.63745,12.18213Zm12.30371-36.91089L176,313.96533V270.35022a48.21529,48.21529,0,0,0,5.374,4.18054l49.104,32.73584ZM424,476.28125V480H352V468.52954l31.7749-19.06494Zm-93.20117-170.585,43.582,130.7456-26.69751,16.01856-52.35425-119.667a7.99346,7.99346,0,0,0-2.8916-3.44971L266.957,312.35693l37.04321-37.04321L325.001,296.31445A24.12643,24.12643,0,0,1,330.79883,305.69629ZM292.686,263.99988l-39.30567,39.30578L190.249,261.21826A31.93682,31.93682,0,0,1,176,234.59277V216h68.686ZM256.30762,149.80225,241.96533,200H176V152a48.05468,48.05468,0,0,1,48-48h56v37.7959l-17.05762,2.27441A8.00081,8.00081,0,0,0,256.30762,149.80225Z"/></svg>
