<?xml version="1.0"?>
<svg xmlns="http://www.w3.org/2000/svg" id="outline" viewBox="0 0 512 512" width="512" height="512"><path d="M424,96H392V48a32.00037,32.00037,0,0,0-51.19971-25.60059L315.2002,41.59961A8.00229,8.00229,0,0,0,312,48V96H280a40.04552,40.04552,0,0,0-40,40v57.47949a46.594,46.594,0,0,0,32,44.1875v15.12793L106.73651,425.92871,51.3501,465.49023A7.99923,7.99923,0,0,0,48,472v16a8.00008,8.00008,0,0,0,8,8h88a8.00008,8.00008,0,0,0,8-8V467.728L336,313.168V488a8.00008,8.00008,0,0,0,8,8h80a8.00008,8.00008,0,0,0,8-8V472a7.99951,7.99951,0,0,0-3.00244-6.24707l-35.89685-28.71729,22.61755-82.93115A7.998,7.998,0,0,0,416,352V239.95532c.54675.01929,1.09271.04468,1.64209.04468A46.41009,46.41009,0,0,0,464,193.64258V136A40.04552,40.04552,0,0,0,424,96Zm0,16a24.02718,24.02718,0,0,1,24,24v16H416V136H400v20.68652l-9.01135-9.01172a33.37212,33.37212,0,0,0-14.52429-20.062A40.21527,40.21527,0,0,0,388.65,112ZM376,96a24,24,0,0,1-48,0V72h48ZM350.39941,35.2002A16.00024,16.00024,0,0,1,376,48v8H328V52ZM280,112h35.35a40.24107,40.24107,0,0,0,19.52557,20.14087L304,158.60645V136H288v16H256V136A24.02718,24.02718,0,0,1,280,112Zm-24,81.47949V168h32v8a8,8,0,0,0,13.20654,6.07422l46.02784-39.45313A17.42526,17.42526,0,0,1,376,155.85156,4.15327,4.15327,0,0,1,371.85156,160H360a7.999,7.999,0,0,0-6.02051,2.73242l-44.48974,50.8457A30.5211,30.5211,0,0,1,256,193.47949ZM144.47052,453.15674l-21.287-21.28711L241.06293,308.377,275.651,342.96484ZM136,480H64v-3.88281l47.13525-33.668L136,467.31348ZM287.94879,332.63477l-35.835-35.835L283.42261,264H400v56H352V296a8.0005,8.0005,0,0,0-13.14551-6.126ZM416,480H352V468.5293l31.34619-18.80762L416,475.84473Zm-38.87219-45.207L352,449.87012V336h48v14.92871ZM400,248H288v-8.03979a46.50459,46.50459,0,0,0,33.53076-15.84693l30.9018-35.31592,30.01178,35.01416A46.312,46.312,0,0,0,400,236.50464Zm17.64209-24a30.3245,30.3245,0,0,1-23.04932-10.60059l-31.51495-36.76782L363.63037,176h8.22119a20.12024,20.12024,0,0,0,16.37781-8.45654l14.11389,14.11377A8.00038,8.00038,0,0,0,416,176v-8h32v25.64258A30.39206,30.39206,0,0,1,417.64209,224Z"/></svg>
