<?xml version="1.0"?>
<svg xmlns="http://www.w3.org/2000/svg" id="outline" viewBox="0 0 512 512" width="512" height="512"><path d="M487.15527,236.42236a8.00024,8.00024,0,0,0-10.73291-3.57763L472,235.05566V232a7.99977,7.99977,0,0,0-8-8H448a8.00011,8.00011,0,0,0-7.58936,5.47021l-6.77,20.30958L408,258.96045V256a7.99877,7.99877,0,0,0-2.34326-5.65674l-8-8A7.99877,7.99877,0,0,0,392,240H360a7.99877,7.99877,0,0,0-5.65674,2.34326l-8,8-24,24A7.99877,7.99877,0,0,0,320,280H233.29834l-91.314-30.438-38.59961-92.63916a8.00665,8.00665,0,0,0-8.26807-4.874l-72,8A8.00017,8.00017,0,0,0,16,168v16a7.99924,7.99924,0,0,0,4.42236,7.15527l44.709,22.3545,18.29541,73.18212A48.26717,48.26717,0,0,0,111.08545,319.169l36.87646,15.80419A307.81413,307.81413,0,0,0,269.89111,360a309.77612,309.77612,0,0,0,156.9375-42.73535l65.22754-38.36914A8.00051,8.00051,0,0,0,496,272V256a7.99737,7.99737,0,0,0-.84473-3.57764ZM388.68652,256,392,259.31348V264c0,.23462-.01678.46729-.03119.70044l-14.69385,5.261L363.31348,256ZM352,267.31348l8.61359,8.61352L349.23828,280h-9.9248ZM232,296h16v47.18921a290.83542,290.83542,0,0,1-69.03839-13.63574L195.895,284.39771l33.57519,11.19165A7.99908,7.99908,0,0,0,232,296ZM32,179.05566v-3.8955l58.92236-6.54688,4.82386,11.57739-24.5907,18.44287Zm85.38818,125.40723a32.17729,32.17729,0,0,1-18.439-21.65185L81.0495,211.21265l21.04571-15.78431,26.52,63.64881a7.999,7.999,0,0,0,4.855,4.51221l47.23523,15.74511L163.8913,324.17224c-3.22278-1.25036-6.43573-2.53772-9.62665-3.90515ZM264,343.92639V296h86.62744a7.99505,7.99505,0,0,0,2.69678-.46826l5.98669-2.14356,19.70893,29.56348A293.763,293.763,0,0,1,269.89111,344C267.924,344,265.96173,343.96509,264,343.92639Zm216-76.50207-61.28369,36.04931q-12.09576,7.11529-24.77661,13.01416L374.83453,287.83l67.86225-24.29822a7.99994,7.99994,0,0,0,4.89258-5.002L453.76611,240H456v8a7.99974,7.99974,0,0,0,11.57764,7.15527l8.84472-4.42236L480,257.88867Z"/></svg>
