<svg id="outline" height="512" viewBox="0 0 512 512" width="512" xmlns="http://www.w3.org/2000/svg"><path d="m304 299.43018 128.54-122.32813a24.00169 24.00169 0 0 0 .42676-34.35644l-12.40332-12.40235a8.00034 8.00034 0 0 0 -11.31446 0l-5.36425 5.36475a17.53479 17.53479 0 0 0 -30.80469 3.31836l-12.76367 31.90674-57.43307 42.79064a30.63485 30.63485 0 0 0 -42.95483-27.13134 42.46725 42.46725 0 0 1 31.78637-18.47034l16.23633 16.23633a18.39692 18.39692 0 0 0 30.16016-19.66065l15.32519-5.10839a7.99968 7.99968 0 0 0 5.46973-7.58936v-16a24.0275 24.0275 0 0 0 -24-24h-42.81152a141.19059 141.19059 0 0 0 -141.18848 141.188v106.812a8.00008 8.00008 0 0 0 8 8h137.09375a8.00008 8.00008 0 0 0 8-8zm67.68555-117.01518a7.9959 7.9959 0 0 0 2.64843-3.44385l13.60157-34.00195a1.54022 1.54022 0 0 1 2.9707.57129v6.45951a8.0001 8.0001 0 0 0 13.65723 5.65674l10.34277-10.34326 6.74609 6.74609a7.9992 7.9992 0 0 1 -.1416 11.45166l-97.239 92.54022-23.10034-23.10028zm-128.49414 40.6143 12.3916-12.3916a61.96 61.96 0 0 0 12.37842 28.99371l-4.08448 4.08441a14.62723 14.62723 0 1 1 -20.68554-20.68652zm43.71484-8.40186a14.53177 14.53177 0 0 1 -4.28418 10.34326l-3.2251 3.225a46.27824 46.27824 0 0 1 -8.49072-26.82312v-1.30567c.45386-.042.91162-.06689 1.373-.06689a14.6438 14.6438 0 0 1 14.627 14.62742zm5.18848-86.62744h42.81152a8.00917 8.00917 0 0 1 8 8v10.23389l-18.53025 6.17675a7.99946 7.99946 0 0 0 -4.625 11.16748l3.35156 6.70118a2.39544 2.39544 0 0 1 -1.07227 3.21435 2.38941 2.38941 0 0 1 -2.76465-.44873l-18.70214-18.70166a8.00076 8.00076 0 0 0 -5.65725-2.34326 58.472 58.472 0 0 0 -52.78809 33.60986l-2.748 5.88526-43.26685-18.54285a125.38806 125.38806 0 0 1 95.99142-44.95227zm-1.60938 162.20508a7.99878 7.99878 0 0 0 -2.48535 5.79492v56h-121.09375v-98.812a124.74328 124.74328 0 0 1 19.48755-66.9897l46.20337 19.80139-5.80762 12.43708a30.63031 30.63031 0 0 0 48.40186 36.59253l2.83154-2.83149 10.1814-7.58569 24.47314 24.47315z"/><path d="m472 40h-432a24.0275 24.0275 0 0 0 -24 24v384a24.0275 24.0275 0 0 0 24 24h432a24.0275 24.0275 0 0 0 24-24v-384a24.0275 24.0275 0 0 0 -24-24zm8 408a8.00917 8.00917 0 0 1 -8 8h-432a8.00917 8.00917 0 0 1 -8-8v-384a8.00917 8.00917 0 0 1 8-8h432a8.00917 8.00917 0 0 1 8 8z"/><path d="m48 408h16v32h-16z"/><path d="m72 408h16v32h-16z"/><path d="m256 400a24.038 24.038 0 0 0 -22.62378 16h-129.37622v16h129.37622a23.99849 23.99849 0 1 0 22.62378-32zm0 32a8 8 0 1 1 8-8 8.00917 8.00917 0 0 1 -8 8z"/><path d="m304 416h144v16h-144z"/><circle cx="56" cy="80" r="8"/><circle cx="80" cy="80" r="8"/><circle cx="104" cy="80" r="8"/></svg>