<?xml version="1.0"?>
<svg xmlns="http://www.w3.org/2000/svg" id="outline" viewBox="0 0 512 512" width="512" height="512"><path d="M75.12695,368a59.51931,59.51931,0,0,0,35.19336-11.61523L112,355.14062V496h16V376H288V496h16V270.62988l10.6582,9.32617A64.82727,64.82727,0,0,0,357.3584,296a65.61559,65.61559,0,0,0,58.00195-34.80176L460.7998,176H488a8.00039,8.00039,0,0,0,8-8V96a8.00039,8.00039,0,0,0-8-8H400a8.00039,8.00039,0,0,0-8,8v61.43652L358.97949,203.665l-39.94922-39.94922A39.74237,39.74237,0,0,0,290.74512,152H259.99463a51.61044,51.61044,0,0,0,3.83618-16H324a36,36,0,0,0,0-72H293.76611l-6.8833-20.64941A39.94883,39.94883,0,0,0,248.93555,16H200a40.04584,40.04584,0,0,0-40,40V80a8.00039,8.00039,0,0,0-8,8v16a7.99943,7.99943,0,0,0,3.5625,6.65625L160,113.6145V132a51.71028,51.71028,0,0,0,4.00537,20H114.71484a40.05,40.05,0,0,0-34.86328,20.38965L27.26074,265.88574A87.85665,87.85665,0,0,0,16,308.87305,59.19413,59.19413,0,0,0,75.12695,368ZM408,104h72v56H464a40.04584,40.04584,0,0,0-40-40H408ZM359.999,224q.3296,0,.66114-.02734a8.00171,8.00171,0,0,0,5.84961-3.32227l40-56A8.00671,8.00671,0,0,0,408,160V136h16a24.0275,24.0275,0,0,1,24,24v6.00049L401.24316,253.669A49.64642,49.64642,0,0,1,357.3584,280a48.83231,48.83231,0,0,1-32.16406-12.085l-17.802-15.57666,36.89429-40.73731,10.05615,10.05616A8.00262,8.00262,0,0,0,359.999,224ZM168,99.71875V96h48.22754A36.19361,36.19361,0,0,0,216,100a35.82892,35.82892,0,0,0,2.06421,12H186.42188ZM222.0835,80H196.94434l8-16h39.956l.22241.6665A36.07839,36.07839,0,0,0,222.0835,80ZM252,80h18.0835a35.91756,35.91756,0,0,0,0,40H252a20,20,0,0,1,0-40Zm72,0a20,20,0,0,1,0,40H300a20,20,0,0,1,0-40ZM271.7041,48.41016,276.90039,64H261.76611l-6.8833-20.64941a40.02867,40.02867,0,0,0-5.93994-11.35035A23.97,23.97,0,0,1,271.7041,48.41016ZM176,56a24.0275,24.0275,0,0,1,24-24h16.93555a23.95925,23.95925,0,0,1,22.61352,16H200a8.00022,8.00022,0,0,0-7.15527,4.42188L179.05566,80H176Zm3.5625,70.65625A8.00221,8.00221,0,0,0,184,128h45.40747a35.82933,35.82933,0,0,0,18.39722,7.74756A36.00015,36.00015,0,0,1,176,132v-7.71875ZM93.79688,180.2334A24.02951,24.02951,0,0,1,114.71484,168h59.81543a51.8744,51.8744,0,0,0,74.93946,0h41.27539a23.84267,23.84267,0,0,1,16.9707,7.03027L332.959,200.27344l-37.60961,41.52734-18.08179-15.82129-10.53516,12.041L288,256.62988V360H128V344h-.96021l75.60059-56H232a8.00039,8.00039,0,0,0,8-8V200a8.00039,8.00039,0,0,0-8-8H144a8.00039,8.00039,0,0,0-8,8v30.35718L125.666,254.4707l-3.10718,1.86426L66.7002,228.40576ZM168,224H152V208h72v64H208v-8A40.04584,40.04584,0,0,0,168,224ZM41.20605,273.72949l17.64063-31.36181,47.44946,23.72485L67.88379,289.13965l8.23242,13.7207,60-36a8.00735,8.00735,0,0,0,3.23731-3.709L149.27539,240H168a24.0275,24.0275,0,0,1,24,24v11.96973l-91.20312,67.55859A43.12694,43.12694,0,0,1,32,308.87305,71.83424,71.83424,0,0,1,41.20605,273.72949Z"/><rect x="200" y="432" width="16" height="64"/><circle cx="208" cy="224" r="8"/><circle cx="464" cy="120" r="8"/></svg>
